<svg width="1024" height="1024" xmlns="http://www.w3.org/2000/svg" xmlns:xlink="http://www.w3.org/1999/xlink" onload="init()" id="rwrTCN9R86ays4naE"><script type="application/javascript"> <![CDATA[ 
function init(){}
 ]]> </script><g id="fo2pfdoEHYmPHW4Go" type="layer"><title>fo2pfdoEHYmPHW4Go</title><path d="M955.5971923405908 92.47659624291799C920.1946654851221 64.23481310082815 868.7783446843408 70.1527208156719 840.5480590398096 105.66057146264455L511.9081664616846 520.6408723659645L397.0237975652002 375.51953447533947C368.8914428288721 339.97897661401134 317.40923457691895 334.09347856713634 281.97495418141114 362.3354829616676C246.57296138355957 390.57748735619884 240.67733150074707 442.29346025658947 268.84214168141114 477.83472002221447L447.81743770191895 703.8676790065895C463.34050899098145 723.528445608152 486.95342403004395 734.9047273464332 511.9081664616846 734.9047273464332C536.8640990788721 734.9047273464332 560.4429565007471 723.4296296901832 575.9988647038721 703.8676790065895L968.7290282780908 207.97540605737112C996.8945556218408 172.43478716088674 990.9992309148096 120.71841753198049 955.5971923405908 92.47659624291799ZM790.2781005437158 797.9295076198707L233.53823237965332 797.9295076198707L233.53823237965332 239.01199663354302L651.2895751530908 239.01199663354302L729.3970580632471 140.37919939233205L184.41431575367676 140.37919939233205C157.26514583180176 140.37919939233205 135.29020839283692 162.4400514431133 135.29020839283692 189.69560564233205L135.29020839283692 847.2459138698707C135.29020839283692 874.468631155027 157.26514583180176 896.563113576902 184.41431575367676 896.563113576902L839.4015136296533 896.563113576902C866.5184569890283 896.563113576902 888.5260863835596 874.468631155027 888.5260863835596 847.2459138698707L888.5260863835596 414.9398530788551L790.2781005437158 538.9865754909645L790.2781005437158 797.9295076198707Z" name="http://lore-mbp.local:3000/icons/black_kitty_1024x1024.jpg" id="SGBZ8A8CDd8hTZzRy" type="complex_path" stroke="#000000" stroke-width="0" stroke-opacity="1" fill="#000000" fill-opacity="1" stroke-linejoin="miter" stroke-linecap="butt" opacity="1"/></g></svg>