<svg width="1024" height="1024" xmlns="http://www.w3.org/2000/svg" xmlns:xlink="http://www.w3.org/1999/xlink" onload="init()" id="ZEhJyzR4E3eYgpAEG"><script type="application/javascript"> <![CDATA[ 
function init(){}
 ]]> </script><g id="WYvB4AwqsrvgQve3c" type="layer"><title>WYvB4AwqsrvgQve3c</title><path d="M13.8897705078125 511.999755859375C13.8897705078125 236.80093383789062 236.80091857910156 13.889739990234375 511.9995422363281 13.889739990234375C787.1991577148438 13.889739990234375 1010.1102905273438 236.80093383789062 1010.1102905273438 511.999755859375C1010.1102905273438 787.1996459960938 787.1991577148438 1010.1102905273438 511.9995422363281 1010.1102905273438C236.80091857910156 1010.1102905273438 13.8897705078125 787.1996459960938 13.8897705078125 511.999755859375Z" name="http://lore-mbp.local:3000/icons/black_kitty_1024x1024.jpg" id="Wy6KGqdairttpK7py" type="complex_path" stroke="#000000" stroke-width="24" stroke-opacity="1" fill="#000000" fill-opacity="0" stroke-linejoin="miter" stroke-linecap="butt" opacity="1"/><path d="M41.595947265625 511.9997673034668C41.595947265625 252.10842514038086 252.10836791992188 41.595947265625 511.9998474121094 41.595947265625C771.891357421875 41.595947265625 982.404052734375 252.10842514038086 982.404052734375 511.9997673034668C982.404052734375 771.8919792175293 771.891357421875 982.4040641784668 511.9998474121094 982.4040641784668C252.10836791992188 982.4040641784668 41.595947265625 771.8919792175293 41.595947265625 511.9997673034668Z" name="http://lore-mbp.local:3000/icons/black_kitty_1024x1024.jpg" id="ekyr2hMcSoq58kYDc" type="complex_path" stroke="#000000" stroke-width="12" stroke-opacity="1" fill="#000000" fill-opacity="0" stroke-linejoin="miter" stroke-linecap="butt" opacity="1"/><path d="M112 512C112 291.0055236816406 291.0055236816406 112 512 112C732.9944458007812 112 912 291.0055236816406 912 512C912 732.9944458007812 732.9944458007812 912 512 912C291.0055236816406 912 112 732.9944458007812 112 512Z" name="http://lore-mbp.local:3000/icons/black_kitty_1024x1024.jpg" id="NgAfjHBq72chxYf3k" type="complex_path" stroke="#ffffff" stroke-width="0" stroke-opacity="1" fill="#000000" fill-opacity="0.46066039639032735" stroke-linejoin="miter" stroke-linecap="butt" opacity="1"/></g></svg>