<svg width="1024" height="1024" xmlns="http://www.w3.org/2000/svg" xmlns:xlink="http://www.w3.org/1999/xlink" onload="init()" id="Lfqt8FAYvCmM9uQAj"><script type="application/javascript"> <![CDATA[ 
function init(){}
 ]]> </script><g id="CgsnypPF4wtqffTns" type="layer"><title>CgsnypPF4wtqffTns</title><path d="M819.2443704835189 478.4388756137555C789.6907205811751 478.4388756137555 765.7277689210189 502.4015220981305 765.7277689210189 531.938753543443L765.7277689210189 759.0950645785992C765.7277689210189 771.430452762193 755.7244730225814 781.440950809068 743.4146585694564 781.440950809068L267.6720895997298 781.440950809068C255.36213781750325 781.440950809068 245.342301391722 771.430452762193 245.342301391722 759.0950645785992L245.342301391722 283.3952049594586C245.342301391722 271.0854515414899 255.36213781750325 261.0659965854352 267.6720895997298 261.0659965854352L494.8329019776595 261.0659965854352C524.3954935303939 261.0659965854352 548.3418436280501 237.1115593295758 548.3418436280501 207.5583366733258C548.3418436280501 178.00473254734925 524.3870401612533 154.05900806004456 494.8329019776595 154.05900806004456L267.6720895997298 154.05900806004456C196.35525610363607 154.050569949693 138.3251123658431 212.07113879734925 138.3251123658431 283.3952049594586L138.3251123658431 759.1037315707867C138.3251123658431 830.4353966098492 196.35525610363607 888.456575809068 267.6720895997298 888.456575809068L743.4066019288314 888.456575809068C814.7234354249251 888.456575809068 872.7459573975814 830.4271568637555 872.7459573975814 759.1037315707867L872.7459573975814 531.9464134555524C872.7536478272689 502.4015220981305 848.7991800538314 478.4388756137555 819.2443704835189 478.4388756137555ZM850.4151468507064 47.02692073399476L628.6094217530501 47.02692073399476C599.0545511475814 47.02692073399476 575.1086893311751 70.98128360325745 575.1086893311751 100.53461688572816C575.1086893311751 130.087923465318 599.0545511475814 154.050569949693 628.6094217530501 154.050569949693L797.0917825928939 154.050569949693L441.98982336437825 509.1292137485211C421.0834207764876 530.0180076938336 421.0834207764876 563.898714480943 441.98982336437825 584.7977012973492C452.43061926281575 595.2381920200055 466.13838293469075 600.466341434068 479.8205423585189 600.466341434068C493.519791626097 600.466341434068 507.210465454222 595.2381920200055 517.659684204222 584.7977012973492L872.7455911866439 229.71899646336487L872.7455911866439 398.18161243016175C872.7455911866439 427.7349876743024 896.7081156007064 451.688997684068 926.2444925538314 451.688997684068C955.8159647218001 451.688997684068 979.7623758546126 427.7349876743024 979.7623758546126 398.18161243016175L979.7623758546126 176.37127917820862C979.7711649171126 105.0560860019391 921.7573709718001 47.02692073399476 850.4151468507064 47.02692073399476Z" name="undefined" id="mRxCi7CSP7d5ADYa7" type="complex_path" stroke="#000000" stroke-width="0" stroke-opacity="1" fill="#000000" fill-opacity="1" stroke-linejoin="miter" stroke-linecap="butt" opacity="1"/></g><g id="eaeeoiMgwNZiQx63B" type="layer"><title>eaeeoiMgwNZiQx63B</title></g></svg>