<svg width="1024" height="1024" xmlns="http://www.w3.org/2000/svg" xmlns:xlink="http://www.w3.org/1999/xlink" onload="init()" id="bZLa5XifPA4k9X6J2"><script type="application/javascript"> <![CDATA[ 
function init(){}
 ]]> </script><g id="ju9SNdSuPuTkpjEQR" type="layer"><title>ju9SNdSuPuTkpjEQR</title><path d="M13.8897705078125 511.999755859375C13.8897705078125 236.80093383789062 236.80091857910156 13.889739990234375 511.9995422363281 13.889739990234375C787.1991577148438 13.889739990234375 1010.1102905273438 236.80093383789062 1010.1102905273438 511.999755859375C1010.1102905273438 787.1996459960938 787.1991577148438 1010.1102905273438 511.9995422363281 1010.1102905273438C236.80091857910156 1010.1102905273438 13.8897705078125 787.1996459960938 13.8897705078125 511.999755859375Z" name="http://lore-mbp.local:3000/icons/black_kitty_1024x1024.jpg" id="GNPiNqLumYh9pDNmu" type="complex_path" stroke="#000000" stroke-width="24" stroke-opacity="1" fill="#000000" fill-opacity="0" stroke-linejoin="miter" stroke-linecap="butt" opacity="1"/><path d="M41.595947265625 511.999755859375C41.595947265625 252.10842895507812 252.10836791992188 41.595947265625 511.9998474121094 41.595947265625C771.891357421875 41.595947265625 982.404052734375 252.10842895507812 982.404052734375 511.999755859375C982.404052734375 771.8919677734375 771.891357421875 982.404052734375 511.9998474121094 982.404052734375C252.10836791992188 982.404052734375 41.595947265625 771.8919677734375 41.595947265625 511.999755859375Z" name="http://lore-mbp.local:3000/icons/black_kitty_1024x1024.jpg" id="53pXwT2652HAvMgfb" type="complex_path" stroke="#000000" stroke-width="12" stroke-opacity="1" fill="#000000" fill-opacity="0" stroke-linejoin="miter" stroke-linecap="butt" opacity="1"/><path d="M125.57939430116357,403.8606135341281 219.90751930116357,309.499010750925 478.3177518451089,567.876940438425 909.0801114642495,137.24769086567107 1003.4414395892495,231.54252881733123 478.3177518451089,756.5991694423312Z" id="usTC78Nmi6yu7GXKM" type="simple_path" name="http://lore-mbp.local:3000/icons/black_kitty_1024x1024.jpg" stroke="#ffffff" stroke-width="15" stroke-opacity="1" fill="#000000" fill-opacity="1" stroke-linejoin="miter" stroke-linecap="butt" opacity="1"/></g></svg>