<svg width="1024" height="1024" xmlns="http://www.w3.org/2000/svg" xmlns:xlink="http://www.w3.org/1999/xlink" onload="init()" id="MK8GrxB59gigHe2Mz"><script type="application/javascript"> <![CDATA[ 
function init(){}
 ]]> </script><g id="6oL5Ess4LB53s2mRz" type="layer"><title>6oL5Ess4LB53s2mRz</title><path d="M132.73899841308594 469.62774658203125C132.73899841308594 469.62774658203125 246.07872009277344 332.4561767578125 312.9991760253906 362.6277160644531C379.9525451660156 392.7999572753906 299.6531677246094 444.7430419921875 364.51043701171875 471.88970947265625C429.33709716796875 499.0358581542969 527.2359008789062 465.1617736816406 505.57391357421875 386.7191467285156C483.9100646972656 308.2761535644531 445.4227294921875 363.9209289550781 415.3792419433594 321.8493957519531C385.26995849609375 279.77899169921875 563.2098999023438 186.99899291992188 563.2098999023438 186.99899291992188C563.2098999023438 186.99899291992188 671.5541381835938 382.399658203125 702.3382568359375 331.2808837890625C739.6344604492188 269.4366455078125 805.2662963867188 205.97930908203125 873.3468017578125 301.1671142578125C873.3468017578125 301.1671142578125 931.821533203125 372.029541015625 881.2763671875 402.0556640625C830.7312622070312 432.080810546875 787.2462158203125 415.0697021484375 768.2598266601562 447.6802673339844C749.3699340820312 480.3507080078125 890.2379150390625 567.9285278320312 890.2379150390625 567.9285278320312C890.2379150390625 567.9285278320312 793.9509887695312 709.2432250976562 731.4468383789062 672.1677856445312C668.942626953125 635.090576171875 742.9219360351562 573.3358154296875 647.6668090820312 554.9736938476562C606.1481323242188 548.21728515625 536.8414306640625 570.7803344726562 524.5927124023438 623.7213134765625C520.4014282226562 703.3092651367188 576.2974243164062 682.9498901367188 614.7553100585938 725.8143310546875C653.146240234375 768.6181640625 470.2102966308594 858.6668701171875 470.2102966308594 858.6668701171875C470.2102966308594 858.6668701171875 419.1505432128906 743.4112548828125 347.36212158203125 721.8470458984375C275.5740661621094 700.2532958984375 318.5768127441406 784.5723266601562 253.33209228515625 796.2063598632812C188.0874786376953 807.8402709960938 98.0865478515625 725.7258911132812 141.79757690429688 655.5093383789062C185.57296752929688 585.2630004882812 247.36795043945312 654.2153930664062 252.719482421875 598.1900634765625C258.1342468261719 542.1347045898438 132.73899841308594 469.62774658203125 132.73899841308594 469.62774658203125Z" name="http://lore-mbp.local:3000/icons/black_kitty_1024x1024.jpg" id="qdv6jaoBa5Hw7zPEj" type="complex_path" stroke="#000000" stroke-width="0" stroke-opacity="1" fill="#000000" fill-opacity="1" stroke-linejoin="miter" stroke-linecap="butt" opacity="1"/></g></svg>