<svg width="1024" height="1024" xmlns="http://www.w3.org/2000/svg" xmlns:xlink="http://www.w3.org/1999/xlink" onload="init()" id="cQjyHggMxp2hcCAu6"><script type="application/javascript"> <![CDATA[ 
function init(){}
 ]]> </script><g id="kuh84QQXDkGj7Hj3R" type="layer"><title>kuh84QQXDkGj7Hj3R</title><path d="M708.6672591741162 47.65409505893143C739.0586776311475 60.50358236361893 767.9371566350537 76.22550619174393 794.96260829521 94.48007619906815C775.640098529585 124.21631277133378 765.2535018498975 136.7637828641072 512.4381789739209 512.8815501980916ZM914.3774947698194 207.9328502469197C934.2725143010694 234.25653493930253 951.4210738713819 262.31132925082596 965.6984786565381 291.63298452426346C934.0966109807569 307.7240794949666 918.8278121526319 313.3972057156697 511.82447047782716 512.7170604519978ZM1012.3884810979446 449.59343374301346C1016.4562301213821 482.33791006137284 1017.2798385198196 515.2083934598103 1014.9836959416946 547.7403758816856C979.5700606877881 545.8747142605919 963.5103683049756 543.1534007840294 511.3751906926709 512.2678417019978ZM976.4381637151319 707.8831371121544C963.5886764104444 738.2745555691856 947.8667525823194 767.1530345730919 929.6121749456006 794.1784862332481C899.8759688909131 774.8559764676231 887.3284835393506 764.4693797879356 511.2107314641553 511.6540721707478ZM816.1594466741162 913.5934642605919C789.8357772405225 933.4884227566856 761.7809066350537 950.6369823269981 732.4593123967725 964.9143871121544C716.3681869084912 933.3125194363731 710.6950912053662 918.0437206082481 511.3751906926709 511.0403636746541ZM574.4988479192334 1011.6043895535606C541.7543410832959 1015.6721385769981 508.88388820243654 1016.4958080105919 476.3518752629834 1014.1996043973106C478.21753688407716 978.7859691434044 480.93885036063966 962.7262767605919 511.82447047782716 510.59108388949784ZM316.2091159398633 975.6540721707481C285.8176993901807 962.8045848660606 256.93921657157716 947.0826610379356 229.9137649114209 928.8280834012169C249.2362746770459 899.0918773465294 259.6228713567334 886.5443919949669 512.4381789739209 510.42665517856034ZM110.49883266044435 815.3753246121544C90.60382838798341 789.0516551785606 73.45528407645998 760.9968456082481 59.1778487737256 731.6751903348106C90.77976222587404 715.5840648465294 106.04854579520998 709.9109691434044 513.0518874700147 510.59108388949784ZM12.48784633231935 573.7147411160606C8.420127826459975 540.9702342801231 7.59648891044435 508.0998119168416 9.892662006147475 475.56776845981034C45.3062667424756 477.4334300809041 61.365989642866225 480.1547740750447 513.5011672551709 511.0403636746541ZM48.438194232709975 315.4250072293416C61.287681537397475 285.03358877231034 77.00957484794435 256.1551402859822 95.2641524846631 229.12968862582596C125.00040431571779 248.45219839145096 137.54785914970216 258.83879507113846 513.6655959661084 511.6540721707478ZM208.71692653251466 109.71474111606034C235.04061122489748 89.81974447299393 263.09543605399904 72.67120779086503 292.4170951421338 58.39376485873612C308.5081901128369 89.99567068149003 314.1812839086133 105.2644618802205 513.5011672551709 512.2678417019978ZM450.37754054618654 11.7037757687703C483.1220168645459 7.636049633516393 515.9925002629834 6.81239164401444 548.5244826848584 9.108587627901159C546.6588210637647 44.52218282748612 543.9375075872022 60.581905727876745 513.0518874700147 512.7170604519978Z" name="undefined" id="dopLKwjKTds94qWs4" type="complex_path" stroke="#000000" stroke-width="0" stroke-opacity="1" fill="#000000" fill-opacity="0.14296357129354986" stroke-linejoin="miter" stroke-linecap="butt" opacity="1"/><path d="M214.59603311244115 483.90730546017386C214.59603311244115 483.90730546017386 303.21358682337865 374.1857478429865 355.5372104806052 398.3195674230646C407.88639260951146 422.4538142492365 345.1022739571677 464.002276163299 395.8125705880271 485.71644852658017C446.4989719552146 507.4303157140803 523.0436802071688 480.3348567297051 506.10660745326226 417.589922647674C489.1681919259177 354.844561319549 459.07596780482396 399.35393021603335 435.5856418770896 365.701494913299C412.04395486537084 332.0500666906427 551.1707859200596 257.8368098547052 551.1707859200596 257.8368098547052C551.1707859200596 257.8368098547052 635.8826084298253 414.1347834875177 659.9519443673253 373.24565384884585C689.1129551095128 323.77739213009585 740.429178254044 273.018877725799 793.659647004044 349.1581904699396C793.659647004044 349.1581904699396 839.379617707169 405.8399531652521 799.8595371407628 429.85722611447085C760.3394565743565 453.8739192297052 726.339578644669 440.2671077062677 711.494607941544 466.3517939855646C696.7248935860753 492.4843623449395 806.866189972794 562.536516885955 806.866189972794 562.536516885955C806.866189972794 562.536516885955 731.5817051095128 675.5718867590019 682.711160675919 645.9158198644707C633.8408603829503 616.2582270910332 691.6835117501378 566.861712198455 617.205789582169 552.1740290929863C584.7432956856846 546.769854288299 530.5540256661532 564.8176142980644 520.9770908517 607.1642939855644C517.699991242325 670.8254878332207 561.4038791817784 654.5402095129082 591.4729404610753 688.8268916418144C621.4899082345128 723.0649897863457 478.4567661446677 795.0934932043144 478.4567661446677 795.0934932043144C478.4567661446677 795.0934932043144 438.53434182826146 702.9023921300957 382.40467263880834 685.6534297277519C326.275445954238 668.3810298254082 359.8981723946677 735.8264033605644 308.8848667306052 745.1323725988457C257.8716831368552 754.4383418371269 187.502122895156 688.7560298254082 221.67872049037084 632.5909907629082C255.90563394251927 576.4020869543144 304.2216129464255 631.5559565832207 308.40592385951146 586.7422358800957C312.6395969552146 541.90443680783 214.59603311244115 483.90730546017386 214.59603311244115 483.90730546017386Z" name="undefined" id="yQ3WbXsLGut6qQGuL" type="complex_path" stroke="#000000" stroke-width="0" stroke-opacity="1" fill="#000000" fill-opacity="1" stroke-linejoin="miter" stroke-linecap="butt" opacity="1"/></g></svg>