<svg width="1024" height="1024" xmlns="http://www.w3.org/2000/svg" xmlns:xlink="http://www.w3.org/1999/xlink" onload="init()" id="KWZurr33J9MvjYFQo"><script type="application/javascript"> <![CDATA[ 
function init(){}
 ]]> </script><g id="ra34trzmaqdnBRfbp" type="layer"><title>ra34trzmaqdnBRfbp</title><path d="M738.9523315429688 512.0266571044922C738.7144165039062 637.3281097412109 637.3152465820312 738.7281951904297 512.0126953125 738.9669036865234C386.658447265625 738.7281951904297 285.23199462890625 637.3281097412109 285.02020263671875 512.0266571044922C285.23199462890625 386.67201232910156 386.658447265625 285.24574279785156 512.0126953125 285.03407287597656C562.5938720703125 285.03407287597656 608.91748046875 301.6656951904297 646.5955810546875 329.6132354736328L599.4780883789062 376.7565155029297L822.3461303710938 436.40647888183594L762.58984375 213.59165954589844L712.6181030273438 263.5645294189453C657.8329467773438 219.22361755371094 587.8976440429688 192.4920654296875 512.0126953125 192.4920654296875C335.5484619140625 192.5713348388672 192.55763244628906 335.5621795654297 192.5047607421875 512.0266571044922C192.5576171875 688.5173797607422 335.5484313964844 831.5079803466797 512.0126953125 831.5079803466797C688.4772338867188 831.5079803466797 831.4951782226562 688.5173797607422 831.4951782226562 512.0266571044922L738.9523315429688 512.0266571044922Z" name="http://lore-mbp.local:3000/icons/black_kitty_1024x1024.jpg" id="fKmMx8etRQppH45gh" type="complex_path" stroke="#000000" stroke-width="0" stroke-opacity="1" fill="#000000" fill-opacity="1" stroke-linejoin="miter" stroke-linecap="butt" opacity="1"/><path d="M12 148.71875C12 74.42865371704102 74.4287109375 12 148.71875 12L875.28125 12C949.571533203125 12 1012 74.42865371704102 1012 148.71875L1012 875.28125C1012 949.5714111328125 949.571533203125 1012 875.28125 1012L148.71875 1012C74.4287109375 1012 12 949.5714111328125 12 875.28125L12 148.71875Z" name="undefined" id="XcLwb9qKyyDnvGwe7" type="complex_path" stroke="#000000" stroke-width="16" stroke-opacity="1" fill="#000000" fill-opacity="0" stroke-linejoin="round" stroke-linecap="round" opacity="1"/></g></svg>