<svg width="1024" height="1024" xmlns="http://www.w3.org/2000/svg" xmlns:xlink="http://www.w3.org/1999/xlink" onload="init()" id="qsqS7b4jrJRRtd7qq"><script type="application/javascript"> <![CDATA[ 
function init(){}
 ]]> </script><g id="CFHigSBjBfacN7JXL" type="layer"><title>CFHigSBjBfacN7JXL</title><path d="M762,677.1218719482422 596.8938598632812,512.0153045654297 761.9696655273438,346.90882873535156 677.10595703125,261.9850158691406 511.99993896484375,427.09117126464844 346.8937683105469,261.9850158691406 262.02996826171875,346.90882873535156 427.10614013671875,512.0153045654297 262,677.1218719482422 346.92376708984375,762.0149993896484 511.99993896484375,596.9091033935547 677.0761108398438,762.0149993896484Z" id="EGDeHu6C4nN2icgvA" type="simple_path" name="http://lore-mbp.local:3000/icons/black_kitty_1024x1024.jpg" stroke="#000000" stroke-width="0" stroke-opacity="1" fill="#000000" fill-opacity="1" stroke-linejoin="miter" stroke-linecap="butt" opacity="1"/><path d="M13.8897705078125 511.999755859375C13.8897705078125 236.80093383789062 236.80091857910156 13.889739990234375 511.9995422363281 13.889739990234375C787.1991577148438 13.889739990234375 1010.1102905273438 236.80093383789062 1010.1102905273438 511.999755859375C1010.1102905273438 787.1996459960938 787.1991577148438 1010.1102905273438 511.9995422363281 1010.1102905273438C236.80091857910156 1010.1102905273438 13.8897705078125 787.1996459960938 13.8897705078125 511.999755859375Z" name="http://lore-mbp.local:3000/icons/black_kitty_1024x1024.jpg" id="T8PFbnFKz9nvD2uxu" type="complex_path" stroke="#000000" stroke-width="24" stroke-opacity="1" fill="#000000" fill-opacity="0" stroke-linejoin="miter" stroke-linecap="butt" opacity="1"/><path d="M41.595947265625 511.9997673034668C41.595947265625 252.10842514038086 252.10836791992188 41.595947265625 511.9998474121094 41.595947265625C771.891357421875 41.595947265625 982.404052734375 252.10842514038086 982.404052734375 511.9997673034668C982.404052734375 771.8919792175293 771.891357421875 982.4040641784668 511.9998474121094 982.4040641784668C252.10836791992188 982.4040641784668 41.595947265625 771.8919792175293 41.595947265625 511.9997673034668Z" name="http://lore-mbp.local:3000/icons/black_kitty_1024x1024.jpg" id="xsKwKYttnEHy3AzFH" type="complex_path" stroke="#000000" stroke-width="12" stroke-opacity="1" fill="#000000" fill-opacity="0" stroke-linejoin="miter" stroke-linecap="butt" opacity="1"/></g></svg>